<svg height="512pt" viewBox="-85 0 512 512" width="512pt" xmlns="http://www.w3.org/2000/svg"><path d="m318.414062 405.726562c-8.777343 0-15.894531 7.117188-15.894531 15.894532v5.675781c0 8.042969-9.53125 14.839844-20.8125 14.839844s-20.808593-6.796875-20.808593-14.839844v-39.539063c7.710937-1.09375 13.648437-7.707031 13.648437-15.71875v-275.371093l-3.808594-4.460938c-.035156-.039062-.078125-.074219-.113281-.113281-.039062-.046875-.074219-.097656-.113281-.144531l-70.976563-79.539063c-7.035156-7.886718-17.523437-12.410156-28.769531-12.410156-11.25 0-21.738281 4.523438-28.777344 12.410156l-70.972656 79.539063c-.042969.046875-.078125.097656-.121094.148437-.03125.039063-.070312.070313-.105469.109375l-3.808593 4.460938v275.371093c0 8.015626 5.9375 14.625 13.648437 15.71875v39.539063c0 8.042969-9.53125 14.839844-20.8125 14.839844s-20.8125-6.796875-20.8125-14.839844v-5.675781c0-8.777344-7.113281-15.894532-15.894531-15.894532-8.777344 0-15.894531 7.117188-15.894531 15.894532v5.675781c0 25.710937 23.597656 46.628906 52.601562 46.628906 29.007813 0 52.601563-20.917969 52.601563-46.628906v-39.363281h16.886719v108.171875c0 8.777343 7.117187 15.894531 15.894531 15.894531 8.777343 0 15.894531-7.117188 15.894531-15.894531v-108.171875h19.339844v108.171875c0 8.777343 7.117187 15.894531 15.894531 15.894531s15.894531-7.117188 15.894531-15.894531v-108.171875h16.886719v39.363281c0 25.714844 23.597656 46.632813 52.601563 46.632813 29.003906 0 52.601562-20.917969 52.601562-46.632813v-5.675781c-.003906-8.777344-7.117188-15.894532-15.898438-15.894532zm0 0"/><path d="m7.765625 165.984375c-10.90625 12.773437-10.261719 30.816406 1.539063 42.902344l25.882812 26.515625v-101.515625zm0 0"/><path d="m332.21875 208.886719c11.800781-12.085938 12.449219-30.128907 1.539062-42.902344l-27.421874-32.101563v101.519532zm0 0"/></svg>