<svg id="f5c88d71-bf90-49a9-93cb-a658058ed5c2" data-name="圖層 1" xmlns="http://www.w3.org/2000/svg" viewBox="0 0 32 32"><title>favicon</title><rect width="32" height="32" rx="16" ry="16" style="fill:#7eabb1"/><path d="M21.62,17.79c-.61,1.51-3.66.62-6-1.36-.27-.22.91-.81.67-1.07S14.24,15,14,14.61c-.1-.15-.19-.29-.28-.44-1.33-2.24-4.24-4.06-6.36-2.72-1.91,1.2-2,3.54-.22,5.91A6.72,6.72,0,0,0,8.3,18.56c.23.19.48,2.22.75,2.38s.66-1.5,1-1.33A18.81,18.81,0,0,0,18.5,21a4,4,0,0,0,3.79-2.3c1-1,2.34.22,3.43-.29.81-.39.44-1.29-.22-1.6-.26-.12-.77-.08-.89-.38s-.1-.68-.22-1a.61.61,0,0,0-.78-.4.45.45,0,0,0-.2.11A6.35,6.35,0,0,0,21.62,17.79Z" style="fill:#f0ebd8"/></svg>